<?xml version="1.0" encoding="UTF-8" standalone="no"?>
<svg
   xmlns:dc="http://purl.org/dc/elements/1.1/"
   xmlns:cc="http://creativecommons.org/ns#"
   xmlns:rdf="http://www.w3.org/1999/02/22-rdf-syntax-ns#"
   xmlns:svg="http://www.w3.org/2000/svg"
   xmlns="http://www.w3.org/2000/svg"
   xmlns:sodipodi="http://sodipodi.sourceforge.net/DTD/sodipodi-0.dtd"
   xmlns:inkscape="http://www.inkscape.org/namespaces/inkscape"
   height="512pt"
   viewBox="0 0 512 512"
   width="512pt"
   version="1.1"
   id="svg14"
   sodipodi:docname="down.svg"
   inkscape:version="0.92.4 (5da689c313, 2019-01-14)">
  <metadata
     id="metadata20">
    <rdf:RDF>
      <cc:Work
         rdf:about="">
        <dc:format>image/svg+xml</dc:format>
        <dc:type
           rdf:resource="http://purl.org/dc/dcmitype/StillImage" />
      </cc:Work>
    </rdf:RDF>
  </metadata>
  <defs
     id="defs18" />
  <sodipodi:namedview
     pagecolor="#ffffff"
     bordercolor="#666666"
     borderopacity="1"
     objecttolerance="10"
     gridtolerance="10"
     guidetolerance="10"
     inkscape:pageopacity="0"
     inkscape:pageshadow="2"
     inkscape:window-width="1044"
     inkscape:window-height="858"
     id="namedview16"
     showgrid="false"
     inkscape:zoom="0.34570313"
     inkscape:cx="341.33333"
     inkscape:cy="341.33333"
     inkscape:window-x="0"
     inkscape:window-y="0"
     inkscape:window-maximized="0"
     inkscape:current-layer="svg14" />
  <path
     d="m256 512c-68.378906 0-132.667969-26.628906-181.019531-74.980469-48.351563-48.351562-74.980469-112.640625-74.980469-181.019531s26.628906-132.667969 74.980469-181.019531c48.351562-48.351563 112.640625-74.980469 181.019531-74.980469s132.667969 26.628906 181.019531 74.980469c48.351563 48.351562 74.980469 112.640625 74.980469 181.019531s-26.628906 132.667969-74.980469 181.019531c-48.351562 48.351563-112.640625 74.980469-181.019531 74.980469zm0-472c-119.101562 0-216 96.898438-216 216s96.898438 216 216 216 216-96.898438 216-216-96.898438-216-216-216zm138.285156 182-28.285156-28.285156-110 110-110-110-28.285156 28.285156 138.285156 138.285156zm0 0"
     id="path12" />
  <path
     style="fill:#ffffff;stroke-width:2.89265537"
     d="M 305.75367,679.61237 C 229.80305,670.59423 161.66176,638.78861 107.56702,587.10681 2.945766,487.15226 -26.739056,341.21962 29.883074,205.20715 50.444814,155.81563 103.31351,91.915035 149.55028,60.569461 220.67312,12.352729 311.08926,-7.6974852 395.59255,6.0084033 542.00366,29.755343 656.02739,146.12254 677.62636,293.83874 c 5.29469,36.21061 2.09865,96.02444 -7.00376,131.07486 -34.48181,132.77852 -144.41315,232.04957 -279.52356,252.41745 -25.19448,3.79805 -63.86569,4.83177 -85.34537,2.28132 z M 415.67458,620.8976 c 103.07303,-28.2834 181.5611,-109.27463 207.57029,-214.19026 9.14117,-36.87351 8.47415,-98.29393 -1.47679,-135.98801 C 579.97671,112.41401 420.60028,19.92352 263.32111,62.702774 214.24366,76.05163 154.28177,114.15612 122.50026,152.19139 92.500512,188.09428 70.423697,231.16712 59.304862,275.48836 c -3.654804,14.56855 -5.000106,32.16903 -5.055014,66.13424 -0.06367,39.39079 0.915682,49.94369 6.577074,70.87006 27.656455,102.22733 105.894318,181.14776 206.211368,208.01044 31.76309,8.50545 32.23456,8.54994 80.65889,7.61248 35.21194,-0.68168 49.80348,-2.23104 67.9774,-7.21798 z"
     id="path77"
     inkscape:connector-curvature="0"
     transform="scale(0.74999998)" />
  <path
     style="fill:#ffffff;stroke-width:2.89265537"
     d="m 250.01585,385.68164 -90.41524,-90.44943 17.42774,-17.2459 17.42775,-17.2459 73.02579,72.98367 73.02578,72.98367 73.69223,-73.73475 73.69222,-73.73476 18.16197,18.00052 18.16197,18.00053 -90.41172,90.44589 c -49.72644,49.74524 -91.07805,90.44589 -91.89248,90.44589 -0.81442,0 -42.16762,-40.70224 -91.89601,-90.44943 z"
     id="path79"
     inkscape:connector-curvature="0"
     transform="scale(0.74999998)" />
</svg>
