<?xml version="1.0" encoding="UTF-8" standalone="no"?>
<!-- Generator: Adobe Illustrator 19.0.0, SVG Export Plug-In . SVG Version: 6.00 Build 0)  -->

<svg
   xmlns:dc="http://purl.org/dc/elements/1.1/"
   xmlns:cc="http://creativecommons.org/ns#"
   xmlns:rdf="http://www.w3.org/1999/02/22-rdf-syntax-ns#"
   xmlns:svg="http://www.w3.org/2000/svg"
   xmlns="http://www.w3.org/2000/svg"
   xmlns:sodipodi="http://sodipodi.sourceforge.net/DTD/sodipodi-0.dtd"
   xmlns:inkscape="http://www.inkscape.org/namespaces/inkscape"
   version="1.1"
   id="Capa_1"
   x="0px"
   y="0px"
   viewBox="0 0 431.76 431.76"
   style="enable-background:new 0 0 431.76 431.76;"
   xml:space="preserve"
   sodipodi:docname="lightbulb.svg"
   inkscape:version="0.92.4 (5da689c313, 2019-01-14)"><metadata
   id="metadata111"><rdf:RDF><cc:Work
       rdf:about=""><dc:format>image/svg+xml</dc:format><dc:type
         rdf:resource="http://purl.org/dc/dcmitype/StillImage" /></cc:Work></rdf:RDF></metadata><defs
   id="defs109" /><sodipodi:namedview
   pagecolor="#ffffff"
   bordercolor="#666666"
   borderopacity="1"
   objecttolerance="10"
   gridtolerance="10"
   guidetolerance="10"
   inkscape:pageopacity="0"
   inkscape:pageshadow="2"
   inkscape:window-width="1678"
   inkscape:window-height="1022"
   id="namedview107"
   showgrid="false"
   inkscape:zoom="0.54659995"
   inkscape:cx="-9.1474578"
   inkscape:cy="215.88"
   inkscape:window-x="0"
   inkscape:window-y="16"
   inkscape:window-maximized="0"
   inkscape:current-layer="Capa_1" />
<g
   id="g26">
	<g
   id="g24">
		<path
   d="M215.88,85.12C153.556,85.164,103.044,135.676,103,198c0.557,40.682,20.351,78.696,53.36,102.48V382    c0.027,0.932,0.216,1.853,0.56,2.72v0.64c0.138,0.33,0.299,0.651,0.48,0.96l28.16,41.92c1.49,2.205,3.979,3.524,6.64,3.52h46.56    c2.661,0.004,5.15-1.315,6.64-3.52l28.16-41.92c0.181-0.309,0.342-0.63,0.48-0.96v-0.64c0.344-0.867,0.533-1.788,0.56-2.72v-81.52    c33.01-23.784,52.803-61.798,53.36-102.48C327.918,135.987,277.891,85.603,215.88,85.12z M234.92,416h-38.08l-17.44-25.92h72.88    L234.92,416z M172.44,374.08v-21.2h86.88l0.08,21.2H172.44z M263,289.52l0,0.24c-2.259,1.487-3.613,4.015-3.6,6.72v40.64h-86.96    V296c0.013-2.705-1.341-5.233-3.6-6.72c-30.628-20.467-49.233-54.687-49.76-91.52c1.537-53.483,46.14-95.594,99.623-94.057    c51.323,1.475,92.582,42.734,94.057,94.057C312.312,234.679,293.697,269.005,263,289.52z"
   id="path22" />
	</g>
</g>
<g
   id="g32">
	<g
   id="g30">
		<path
   d="M219.08,121.36c-4.418,0-8,3.582-8,8s3.582,8,8,8c33.251,0.044,60.196,26.989,60.24,60.24c0,4.418,3.582,8,8,8    s8-3.582,8-8C295.276,155.512,261.168,121.404,219.08,121.36z"
   id="path28" />
	</g>
</g>
<g
   id="g38">
	<g
   id="g36">
		<path
   d="M81.48,189.6h-57.6c-4.418,0-8,3.582-8,8s3.582,8,8,8h57.6c4.418,0,8-3.582,8-8c0,0,0,0,0,0    C89.48,193.182,85.898,189.6,81.48,189.6z"
   id="path34" />
	</g>
</g>
<g
   id="g44">
	<g
   id="g42">
		<path
   d="M407.88,189.6h-57.6c-4.418,0-8,3.582-8,8s3.582,8,8,8h57.6c4.418,0,8-3.582,8-8S412.298,189.6,407.88,189.6z"
   id="path40" />
	</g>
</g>
<g
   id="g50">
	<g
   id="g48">
		<path
   d="M127.313,287.12c-2.874-3.356-7.924-3.747-11.28-0.873c-0.313,0.268-0.605,0.56-0.873,0.873v-0.16L74.28,328    c-3.356,2.874-3.747,7.924-0.873,11.28c2.874,3.356,7.924,3.747,11.28,0.873c0.313-0.268,0.605-0.56,0.873-0.873l40.88-40.88    C129.796,295.526,130.187,290.476,127.313,287.12z"
   id="path46" />
	</g>
</g>
<g
   id="g56">
	<g
   id="g54">
		<path
   d="M356.607,56c-2.995-2.565-7.412-2.565-10.407,0l-40.88,40.88c-3.137,3.111-3.158,8.177-0.047,11.314    c1.513,1.526,3.577,2.379,5.727,2.366l-0.08-0.08c2.126,0.012,4.17-0.823,5.68-2.32l40.88-40.88    C360.354,63.924,359.963,58.874,356.607,56z"
   id="path52" />
	</g>
</g>
<g
   id="g62">
	<g
   id="g60">
		<path
   d="M359.067,329.609c-0.45-0.609-0.984-1.151-1.587-1.609l-40.88-41.04c-2.874-3.356-7.924-3.747-11.28-0.873    c-3.356,2.874-3.747,7.924-0.873,11.28c0.268,0.313,0.56,0.605,0.873,0.873l40.88,40.88c2.626,3.553,7.636,4.304,11.189,1.678    S361.693,333.162,359.067,329.609z"
   id="path58" />
	</g>
</g>
<g
   id="g68">
	<g
   id="g66">
		<path
   d="M126.44,96.88L85.56,56c-3.356-2.874-8.406-2.483-11.28,0.873c-2.565,2.995-2.565,7.412,0,10.407l40.88,40.88    c3.356,2.874,8.406,2.483,11.28-0.873C129.005,104.292,129.005,99.875,126.44,96.88z"
   id="path64" />
	</g>
</g>
<g
   id="g74">
	<g
   id="g72">
		<path
   d="M215.88,0c-4.418,0-8,3.582-8,8v57.84c-0.133,4.416,3.34,8.104,7.756,8.236c0.081,0.002,0.162,0.004,0.244,0.004    c4.418,0,8-3.582,8-8V8C223.88,3.582,220.298,0,215.88,0z"
   id="path70" />
	</g>
</g>
<g
   id="g76">
</g>
<g
   id="g78">
</g>
<g
   id="g80">
</g>
<g
   id="g82">
</g>
<g
   id="g84">
</g>
<g
   id="g86">
</g>
<g
   id="g88">
</g>
<g
   id="g90">
</g>
<g
   id="g92">
</g>
<g
   id="g94">
</g>
<g
   id="g96">
</g>
<g
   id="g98">
</g>
<g
   id="g100">
</g>
<g
   id="g102">
</g>
<g
   id="g104">
</g>
<path
   style="fill:#ffffff;stroke-width:1.82949162"
   d="m 172.54218,407.34716 -15.5718,-23.31513 v -41.3419 -41.34191 l -15.312,-15.52017 c -12.50381,-12.6738 -16.85621,-18.68255 -23.73199,-32.76338 -20.676144,-42.34243 -18.158334,-83.71737 7.30179,-119.98975 14.74473,-21.00642 38.39203,-37.194624 63.6853,-43.596966 13.97415,-3.537196 39.2271,-3.537196 53.20125,0 46.14594,11.680656 80.97498,53.216316 84.41971,100.675436 1.48906,20.51519 -2.89965,41.09572 -13.39764,62.82726 -6.81925,14.1163 -11.01919,19.92631 -23.68407,32.76338 l -15.39489,15.60419 v 41.34191 41.3419 l -15.5718,23.31513 -15.5718,23.31515 h -27.40013 -27.40013 z m 71.78642,-3.2328 c 4.27644,-6.50973 7.77534,-12.66712 7.77534,-13.68311 0,-1.18207 -13.24591,-1.84724 -36.78557,-1.84724 -41.92012,0 -39.63714,-1.40977 -26.9672,16.65247 l 7.56868,10.7899 20.31671,-0.0381 20.3167,-0.038 z m 15.0933,-40.22849 v -11.89169 h -43.90779 -43.9078 v 10.67203 c 0,5.86963 0.54885,11.22089 1.21966,11.89169 0.67081,0.67082 20.42932,1.21967 43.9078,1.21967 h 42.68813 z m 0,-47.82856 v -21.30095 l 7.74346,-6.5988 c 22.1154,-18.84628 33.78492,-35.30117 40.90642,-57.68112 14.96352,-47.02418 -5.10477,-95.19666 -48.75561,-117.03429 -16.58046,-8.29486 -30.00697,-10.94606 -49.29054,-9.73292 -36.38466,2.28899 -66.95248,22.78988 -82.1863,55.11979 -13.22822,28.07354 -12.20192,57.82075 3.06222,88.75793 6.30997,12.78897 20.92049,29.90318 35.67366,41.78677 4.9841,4.01467 5.0311,4.25772 5.0311,26.01853 v 21.96599 h 43.9078 43.90779 z"
   id="path3817"
   inkscape:connector-curvature="0" /><path
   style="fill:#ffffff;stroke-width:1.82949162"
   d="m 326.43178,317.46779 c -19.00777,-19.05005 -23.27134,-24.26093 -22.31523,-27.27336 1.47718,-4.65417 5.78627,-6.41881 10.07256,-4.12486 4.8722,2.60753 45.85483,45.84386 45.85483,48.37647 0,3.07206 -3.86212,6.57119 -7.25289,6.57119 -1.57416,0 -13.43583,-10.59725 -26.35927,-23.54944 z"
   id="path3819"
   inkscape:connector-curvature="0" /><path
   style="fill:#ffffff;stroke-width:1.82949162"
   d="m 346.49868,203.24549 c -2.00862,-1.46874 -3.02448,-4.11215 -2.63654,-6.8606 l 0.63112,-4.47122 33.13079,-0.49765 c 27.39251,-0.41146 33.51842,-0.0306 35.36886,2.19907 3.05801,3.68467 0.86007,9.56064 -4.07066,10.8825 -8.39597,2.25085 -59.02173,1.23539 -62.42357,-1.2521 z"
   id="path3821"
   inkscape:connector-curvature="0" /><path
   style="fill:#ffffff;stroke-width:1.82949162"
   d="m 305.52509,106.47641 c -1.20746,-1.20747 -2.19539,-3.07218 -2.19539,-4.14381 0,-1.07163 10.17021,-12.094211 22.60047,-24.494624 18.18798,-18.144314 23.4565,-22.425203 26.985,-21.926445 3.00484,0.424738 4.57951,1.999144 5.00417,5.003326 0.49749,3.519547 -3.64378,8.658111 -21.01056,26.070255 -21.36309,21.418888 -26.35549,24.519498 -31.38369,19.491298 z"
   id="path3823"
   inkscape:connector-curvature="0" /><path
   style="fill:#ffffff;stroke-width:1.82949162"
   d="m 281.82033,201.68859 c -1.25071,-1.2507 -2.27402,-5.37156 -2.27402,-9.15745 0,-10.25258 -6.49372,-25.69356 -14.75013,-35.07334 -8.85376,-10.0584 -25.57128,-18.80276 -39.20349,-20.50599 -10.88673,-1.36021 -14.65792,-4.20322 -12.90433,-9.72829 1.62669,-5.12525 4.83458,-5.8016 17.83785,-3.76094 33.97869,5.33242 61.72952,35.13859 62.45933,67.08531 0.27184,11.89975 0.11734,12.36196 -4.30462,12.87872 -2.52262,0.2948 -5.60989,-0.48731 -6.86059,-1.73802 z"
   id="path3825"
   inkscape:connector-curvature="0" /><path
   style="fill:#ffffff;stroke-width:1.82949162"
   d="m 211.22393,70.565793 c -4.39388,-4.855178 -4.52568,-62.5862723 -0.15287,-66.959081 1.5812,-1.5812034 3.88636,-2.87491537 5.12257,-2.87491537 5.84276,0 6.63844,4.42181127 6.63844,36.89136037 0,30.25997 -0.24396,32.631147 -3.53871,34.394442 -4.58482,2.453723 -4.52529,2.464433 -8.06943,-1.451806 z"
   id="path3827"
   inkscape:connector-curvature="0" /><path
   style="fill:#ffffff;stroke-width:1.82949162"
   d="M 94.756576,85.792042 C 75.332737,66.321453 72.229756,62.436889 73.931719,59.721787 c 4.737826,-7.55814 9.381993,-5.130181 31.017371,16.215801 11.48956,11.335878 21.37647,22.143079 21.97091,24.016005 1.2837,4.044567 -2.11158,8.718207 -6.33355,8.718207 -1.65277,0 -13.27622,-10.295891 -25.829874,-22.879758 z"
   id="path3829"
   inkscape:connector-curvature="0" /><path
   style="fill:#ffffff;stroke-width:1.82949162"
   d="m 19.717644,202.31066 c -3.495194,-2.83024 -3.787598,-3.91765 -1.967801,-7.31797 2.075121,-3.8774 3.093227,-3.99377 34.939514,-3.99377 31.846287,0 32.864394,0.11638 34.939515,3.99377 1.819797,3.40032 1.527393,4.48773 -1.967801,7.31797 -3.579734,2.89869 -7.800164,3.32419 -32.971714,3.32419 -25.171549,0 -29.391981,-0.4255 -32.971713,-3.32419 z"
   id="path3831"
   inkscape:connector-curvature="0" /><path
   style="fill:#ffffff;stroke-width:1.82949162"
   d="m 75.009154,338.82184 c -1.207464,-1.20747 -2.19539,-3.51214 -2.19539,-5.12149 0,-1.60936 10.633867,-13.44784 23.630815,-26.30776 21.268981,-21.04472 24.011771,-23.17777 27.442371,-21.34177 7.66233,4.10076 4.66047,9.3519 -18.62613,32.58259 -12.340729,12.3111 -23.701871,22.38382 -25.246983,22.38382 -1.545111,0 -3.797218,-0.98793 -5.004683,-2.19539 z"
   id="path3833"
   inkscape:connector-curvature="0" /></svg>