<?xml version="1.0" encoding="UTF-8" standalone="no"?>
<svg
   xmlns:dc="http://purl.org/dc/elements/1.1/"
   xmlns:cc="http://creativecommons.org/ns#"
   xmlns:rdf="http://www.w3.org/1999/02/22-rdf-syntax-ns#"
   xmlns:svg="http://www.w3.org/2000/svg"
   xmlns="http://www.w3.org/2000/svg"
   xmlns:sodipodi="http://sodipodi.sourceforge.net/DTD/sodipodi-0.dtd"
   xmlns:inkscape="http://www.inkscape.org/namespaces/inkscape"
   height="512pt"
   viewBox="0 0 512 512"
   width="512pt"
   version="1.1"
   id="svg4"
   sodipodi:docname="up.svg"
   inkscape:version="0.92.4 (5da689c313, 2019-01-14)">
  <metadata
     id="metadata10">
    <rdf:RDF>
      <cc:Work
         rdf:about="">
        <dc:format>image/svg+xml</dc:format>
        <dc:type
           rdf:resource="http://purl.org/dc/dcmitype/StillImage" />
      </cc:Work>
    </rdf:RDF>
  </metadata>
  <defs
     id="defs8" />
  <sodipodi:namedview
     pagecolor="#ffffff"
     bordercolor="#666666"
     borderopacity="1"
     objecttolerance="10"
     gridtolerance="10"
     guidetolerance="10"
     inkscape:pageopacity="0"
     inkscape:pageshadow="2"
     inkscape:window-width="890"
     inkscape:window-height="826"
     id="namedview6"
     showgrid="false"
     inkscape:zoom="0.34570313"
     inkscape:cx="341.33333"
     inkscape:cy="341.33333"
     inkscape:window-x="0"
     inkscape:window-y="0"
     inkscape:window-maximized="0"
     inkscape:current-layer="svg4" />
  <path
     d="m256 512c-68.378906 0-132.667969-26.628906-181.019531-74.980469-48.351563-48.351562-74.980469-112.640625-74.980469-181.019531s26.628906-132.667969 74.980469-181.019531c48.351562-48.351563 112.640625-74.980469 181.019531-74.980469s132.667969 26.628906 181.019531 74.980469c48.351563 48.351562 74.980469 112.640625 74.980469 181.019531s-26.628906 132.667969-74.980469 181.019531c-48.351562 48.351563-112.640625 74.980469-181.019531 74.980469zm0-472c-119.101562 0-216 96.898438-216 216s96.898438 216 216 216 216-96.898438 216-216-96.898438-216-216-216zm138.285156 250-138.285156-138.285156-138.285156 138.285156 28.285156 28.285156 110-110 110 110zm0 0"
     id="path2" />
  <path
     style="fill:#ffffff;stroke-width:2.89265537"
     d="M 282.42398,676.02094 C 213.97861,663.61387 152.36011,631.73571 103.85684,583.63971 -29.651887,451.25204 -32.934188,241.44897 96.395831,106.73581 230.48517,-32.934762 450.42211,-33.676276 584.10241,105.09152 c 41.19683,42.76466 68.44318,88.99536 83.50394,141.68662 55.69952,194.86921 -69.05796,394.33828 -268.37759,429.09672 -30.8471,5.37927 -87.54387,5.45019 -116.80478,0.14608 z m 129.83269,-54.6153 C 550.20046,586.41333 644.23386,452.67025 628.89582,313.28117 624.60306,274.2692 616.86851,247.53653 599.93614,213.1887 562.01473,136.264 492.39216,80.682392 407.1783,59.304862 392.60976,55.650058 375.00928,54.304756 341.04407,54.249848 286.72764,54.162041 263.17534,59.163816 218.53572,80.266795 169.93789,103.24098 130.27584,137.36778 100.75424,181.61065 82.644952,208.75033 73.391856,228.61971 62.6609,263.40934 c -7.144005,23.16078 -7.705713,28.79658 -7.680061,77.0562 0.02372,44.41302 0.946009,55.37797 6.274138,74.58359 31.330414,112.9327 126.574583,197.00091 241.611273,213.26058 28.61033,4.04387 78.6931,0.88295 109.39042,-6.90407 z"
     id="path3784"
     inkscape:connector-curvature="0"
     transform="scale(0.74999998)" />
  <path
     style="fill:#ffffff;stroke-width:2.89265537"
     d="m 414.77843,349.11514 -73.69222,-73.73475 -73.05679,73.01465 -73.05679,73.01465 -17.35391,-17.3539 -17.3539,-17.35391 91.11855,-91.08412 91.11855,-91.08411 91.15199,91.15199 91.15199,91.15199 -18.16761,18.00613 -18.16764,18.00613 z"
     id="path3786"
     inkscape:connector-curvature="0"
     transform="scale(0.74999998)" />
</svg>
