<?xml version="1.0" encoding="UTF-8" standalone="no"?>
<!-- Generator: Adobe Illustrator 19.0.0, SVG Export Plug-In . SVG Version: 6.00 Build 0)  -->

<svg
   xmlns:dc="http://purl.org/dc/elements/1.1/"
   xmlns:cc="http://creativecommons.org/ns#"
   xmlns:rdf="http://www.w3.org/1999/02/22-rdf-syntax-ns#"
   xmlns:svg="http://www.w3.org/2000/svg"
   xmlns="http://www.w3.org/2000/svg"
   xmlns:sodipodi="http://sodipodi.sourceforge.net/DTD/sodipodi-0.dtd"
   xmlns:inkscape="http://www.inkscape.org/namespaces/inkscape"
   version="1.1"
   id="Layer_1"
   x="0px"
   y="0px"
   viewBox="0 0 300 300"
   style="enable-background:new 0 0 300 300;"
   xml:space="preserve"
   sodipodi:docname="volume.svg"
   inkscape:version="0.92.4 (5da689c313, 2019-01-14)"><metadata
   id="metadata43"><rdf:RDF><cc:Work
       rdf:about=""><dc:format>image/svg+xml</dc:format><dc:type
         rdf:resource="http://purl.org/dc/dcmitype/StillImage" /></cc:Work></rdf:RDF></metadata><defs
   id="defs41" /><sodipodi:namedview
   pagecolor="#ffffff"
   bordercolor="#666666"
   borderopacity="1"
   objecttolerance="10"
   gridtolerance="10"
   guidetolerance="10"
   inkscape:pageopacity="0"
   inkscape:pageshadow="2"
   inkscape:window-width="1246"
   inkscape:window-height="875"
   id="namedview39"
   showgrid="false"
   inkscape:zoom="0.78666667"
   inkscape:cx="-198.30508"
   inkscape:cy="150"
   inkscape:window-x="0"
   inkscape:window-y="0"
   inkscape:window-maximized="0"
   inkscape:current-layer="Layer_1" />
<g
   id="g6"
   style="display:none">
	<g
   id="g4"
   style="display:inline">
		<path
   d="M 149.996,0 C 67.157,0 0.001,67.161 0.001,149.997 0.001,232.833 67.157,300 149.996,300 232.835,300 299.999,232.837 299.999,149.997 299.999,67.157 232.835,0 149.996,0 Z m -0.693,204.044 h -0.002 v -0.001 c 0,3.418 -1.95,6.536 -5.021,8.03 -1.24,0.602 -2.578,0.903 -3.909,0.903 -1.961,0 -3.903,-0.648 -5.506,-1.901 L 105.576,188.13 c -1.354,0.335 -2.767,0.537 -4.235,0.537 h -29.35 c -9.627,0 -17.431,-7.807 -17.431,-17.429 v -50.837 c 0,-9.625 7.804,-17.431 17.431,-17.431 h 29.352 c 1.707,0 3.348,0.257 4.912,0.711 l 28.612,-22.424 c 2.684,-2.106 6.344,-2.492 9.415,-0.999 3.071,1.494 5.021,4.609 5.021,8.027 z m 29.313,-36.683 -9.788,-9.788 c 2.256,-3.084 3.608,-6.87 3.608,-10.979 0,-4.536 -1.631,-8.699 -4.331,-11.936 l 9.713,-9.713 c 5.177,5.745 8.362,13.323 8.362,21.649 -0.003,7.898 -2.849,15.139 -7.564,20.767 z m 12.691,12.693 c 7.944,-8.901 12.781,-20.624 12.781,-33.46 0,-13.264 -5.166,-25.334 -13.585,-34.334 l 9.716,-9.716 c 10.903,11.495 17.613,26.997 17.613,44.049 0,16.625 -6.37,31.792 -16.793,43.188 z m 33.078,32.786 -9.713,-9.716 c 13.793,-14.846 22.25,-34.715 22.25,-56.532 0,-22.243 -8.797,-42.454 -23.073,-57.393 l 9.716,-9.713 c 16.762,17.429 27.098,41.075 27.098,67.106 10e-4,25.609 -10,48.91 -26.278,66.248 z"
   id="path2"
   inkscape:connector-curvature="0"
   style="display:inline" />
	</g>
</g>
<g
   id="g8"
   style="display:none">
</g>
<g
   id="g10"
   style="display:none">
</g>
<g
   id="g12"
   style="display:none">
</g>
<g
   id="g14"
   style="display:none">
</g>
<g
   id="g16"
   style="display:none">
</g>
<g
   id="g18"
   style="display:none">
</g>
<g
   id="g20"
   style="display:none">
</g>
<g
   id="g22"
   style="display:none">
</g>
<g
   id="g24"
   style="display:none">
</g>
<g
   id="g26"
   style="display:none">
</g>
<g
   id="g28"
   style="display:none">
</g>
<g
   id="g30"
   style="display:none">
</g>
<g
   id="g32"
   style="display:none">
</g>
<g
   id="g34"
   style="display:none">
</g>
<g
   id="g36"
   style="display:none">
</g>
<path
   style="display:inline;stroke-width:1.27118647"
   d="m 121.90678,200.16144 -15.25424,-12.02316 -19.087627,-0.001 c -21.663405,-0.001 -25.943815,-1.27936 -30.072627,-8.97798 -2.057319,-3.83609 -2.322251,-7.67494 -2.318043,-33.58822 0.0043,-26.75725 0.216393,-29.60422 2.481686,-33.31941 4.818569,-7.90268 7.283667,-8.6329 29.719188,-8.8035 l 20.242243,-0.15393 14.98436,-11.604548 c 15.86789,-12.288793 19.3457,-13.605778 23.57838,-8.928715 2.31023,2.552772 2.42159,5.469702 2.42159,63.425863 0,57.95616 -0.11136,60.87309 -2.42159,63.42586 -4.33635,4.79161 -8.02596,3.35506 -24.27332,-9.45086 z"
   id="path3771"
   inkscape:connector-curvature="0" /><path
   style="display:inline;stroke-width:1.27118647"
   d="m 173.87664,161.34078 -3.91346,-3.91345 1.93909,-5.39238 c 1.75567,-4.8823 1.74232,-5.98512 -0.1411,-11.65858 l -2.08019,-6.2662 4.21943,-4.2506 4.21942,-4.25059 2.65232,4.29154 c 3.99942,6.47119 5.58621,15.1887 4.02927,22.13604 -1.43027,6.38217 -4.56737,13.21768 -6.06614,13.21768 -0.51985,0 -2.70624,-1.76106 -4.85864,-3.91346 z"
   id="path3773"
   inkscape:connector-curvature="0" /><path
   style="display:inline;stroke-width:1.27118647"
   d="m 196.51623,183.93926 -4.06724,-4.19633 3.18445,-4.31628 c 11.75255,-15.92968 11.50038,-41.52551 -0.57331,-58.19275 l -3.67081,-5.06741 4.44616,-4.2824 4.44615,-4.2824 3.20422,3.81356 c 1.76232,2.09746 5.26127,8.10382 7.77543,13.34746 4.12285,8.59877 4.62328,10.80605 5.10202,22.50381 0.4332,10.58517 0.0431,14.57552 -2.12161,21.7024 -2.35903,7.76659 -10.93974,23.16667 -12.90815,23.16667 -0.41253,0 -2.58033,-1.88835 -4.81731,-4.19633 z"
   id="path3775"
   inkscape:connector-curvature="0" /><path
   style="display:inline;fill:#ffffff;stroke-width:1.27118647"
   d="m 219.55889,207.02303 -3.99391,-3.9939 4.94536,-6.25635 c 10.88913,-13.77578 16.38919,-30.7372 16.42002,-50.63706 0.0294,-18.94722 -4.60854,-33.17335 -16.03555,-49.186867 l -5.87782,-8.237026 4.29703,-4.297037 4.29704,-4.297037 5.44326,6.657225 c 7.39803,9.047957 14.99125,24.769722 18.23807,37.761952 5.27625,21.11303 1.64206,49.30831 -8.689,67.41222 -4.14109,7.25675 -12.88359,19.0678 -14.11393,19.0678 -0.51516,0 -2.73392,-1.79726 -4.93057,-3.99392 z"
   id="path3777"
   inkscape:connector-curvature="0" /><path
   style="display:inline;fill:#ffffff;stroke-width:1.27118647"
   d="m 197.05613,183.20674 -3.54298,-3.69808 3.23636,-4.90263 c 5.63273,-8.53281 7.50537,-15.44329 7.52908,-27.784 0.024,-12.52253 -2.64824,-21.74745 -8.66052,-29.89663 l -3.19983,-4.33712 3.90577,-3.8577 3.90577,-3.8577 2.61359,3.17797 c 1.43747,1.74788 4.69403,7.1822 7.2368,12.07627 l 4.62322,8.8983 v 17.33254 17.33255 l -5.72034,11.1899 c -3.14619,6.15445 -6.31965,11.37767 -7.05214,11.60716 -0.73249,0.22948 -2.92614,-1.24689 -4.87478,-3.28083 z"
   id="path3779"
   inkscape:connector-curvature="0" /><path
   style="display:inline;fill:#ffffff;stroke-width:1.27118647"
   d="m 174.36538,160.50749 c -3.14592,-3.29943 -3.26299,-3.8488 -1.90083,-8.92044 1.11529,-4.15251 1.08267,-6.78368 -0.14083,-11.35818 -1.55781,-5.82451 -1.51088,-6.03519 2.16304,-9.70911 l 3.7554,-3.7554 2.76717,5.4241 c 3.95986,7.76197 4.6033,17.0127 1.71783,24.69731 -1.29078,3.4376 -2.94593,6.44987 -3.67813,6.69393 -0.7322,0.24407 -2.83984,-1.13843 -4.68365,-3.07221 z"
   id="path3781"
   inkscape:connector-curvature="0" /><path
   style="display:inline;fill:#ffffff;stroke-width:1.27118647"
   d="m 134.61864,208.65904 c -2.09745,-1.29162 -8.88146,-6.35166 -15.07557,-11.24452 l -11.26201,-8.89613 -19.654034,-0.84744 c -21.729076,-0.93692 -27.179679,-2.39228 -30.020467,-8.01572 -2.402842,-4.75652 -3.750206,-30.46481 -2.63285,-50.23591 0.85928,-15.20457 0.95368,-15.58101 5.020657,-20.02118 l 4.14491,-4.52526 21.249746,-0.43014 21.249748,-0.43014 14.12553,-10.741457 c 18.48836,-14.059073 22.82875,-15.043284 25.24358,-5.724137 0.58076,2.241212 0.89093,29.993464 0.68928,61.671664 -0.39093,61.41002 -0.43278,61.80429 -6.56044,61.79352 -1.48748,-0.003 -4.42062,-1.06152 -6.51808,-2.35315 z"
   id="path3783"
   inkscape:connector-curvature="0" /><path
   style="display:none;fill:#ffffff;stroke-width:1.27118647"
   d="M 142.24576,299.06563 C 89.444331,296.58356 40.52985,264.52543 16.628706,216.73729 -27.86437,127.77747 24.84511,22.153826 123.23864,3.1034289 c 15.01982,-2.90805237 40.21294,-2.61041271 56.28554,0.6649756 52.28677,10.6553635 95.17413,48.5165585 112.0646,98.9312255 10.04401,29.97939 10.04401,64.62135 0,94.60073 -17.11558,51.0866 -62.05312,90.11484 -114.38539,99.34369 -11.42798,2.01534 -24.43383,2.91628 -34.95763,2.42158 z m 3.54357,-87.31082 c 1.24982,-0.94801 2.82292,-3.6432 3.49577,-5.98931 1.69385,-5.90612 1.59446,-113.488432 -0.11047,-119.627661 -0.72585,-2.613595 -2.40116,-5.330756 -3.7229,-6.038136 -5.24742,-2.808302 -8.56089,-1.313512 -23.91835,10.790127 L 106.21064,102.9661 H 86.242654 c -22.546949,0 -26.396626,1.19779 -30.302236,9.42825 -3.150781,6.63978 -3.001953,60.50367 0.184439,66.75258 4.449372,8.72576 6.981873,9.57622 29.875471,10.03275 l 20.484642,0.40848 15.22946,11.98559 c 15.64418,12.31196 19.25341,13.83827 24.0749,10.18106 z m 84.50417,-4.86922 c 13.25474,-17.36457 19.43279,-34.29494 20.29424,-55.6144 C 251.6349,125.3554 243.962,102.19986 228.1944,83.691803 l -4.30559,-5.053925 -4.91051,4.794978 c -2.70077,2.637236 -4.9105,5.267745 -4.9105,5.845575 0,0.577828 2.26014,3.909898 5.02254,7.4046 11.12967,14.080079 16.59835,30.402359 16.56884,49.452689 -0.0309,19.94286 -5.091,35.27658 -16.73277,50.70559 l -5.13005,6.79894 4.84285,4.95954 c 2.66358,2.72775 5.22923,4.95953 5.70148,4.95953 0.47223,0 3.151,-3.00318 5.95281,-6.67373 z m -19.44816,-30.19068 c 4.79441,-9.33184 7.0365,-18.83297 7.02892,-29.7858 -0.0102,-15.3692 -3.05262,-25.06985 -11.9021,-37.95457 l -5.05432,-7.35902 -5.40518,5.3048 -5.4052,5.30479 4.24712,6.17422 c 11.54617,16.7852 11.78739,40.19044 0.57374,55.67042 -2.05803,2.84104 -3.74188,5.57539 -3.74188,6.07633 0,0.50093 2.14513,3.1164 4.76695,5.81214 l 4.76695,4.90134 3.59303,-4.21215 c 1.97618,-2.31669 4.91555,-6.78631 6.53197,-9.9325 z m -27.86358,-15.36875 c 4.13284,-8.15576 4.49452,-19.93453 0.8636,-28.12424 -3.929,-8.86206 -5.41175,-9.3571 -10.97181,-3.66309 l -4.78275,4.89798 2.26218,6.3693 c 2.13911,6.0228 2.14487,6.66791 0.10602,11.85825 l -2.15613,5.48894 4.70824,4.82165 c 2.58952,2.65191 5.15452,4.82166 5.7,4.82166 0.54549,0 2.46725,-2.9117 4.27061,-6.47045 z"
   id="path31"
   inkscape:connector-curvature="0" /></svg>