<?xml version="1.0" encoding="UTF-8" standalone="no"?>
<!-- Generator: Adobe Illustrator 19.1.0, SVG Export Plug-In . SVG Version: 6.00 Build 0)  -->

<svg
   xmlns:dc="http://purl.org/dc/elements/1.1/"
   xmlns:cc="http://creativecommons.org/ns#"
   xmlns:rdf="http://www.w3.org/1999/02/22-rdf-syntax-ns#"
   xmlns:svg="http://www.w3.org/2000/svg"
   xmlns="http://www.w3.org/2000/svg"
   xmlns:sodipodi="http://sodipodi.sourceforge.net/DTD/sodipodi-0.dtd"
   xmlns:inkscape="http://www.inkscape.org/namespaces/inkscape"
   version="1.1"
   id="Capa_1"
   x="0px"
   y="0px"
   viewBox="0 0 487.95763 418.0686"
   xml:space="preserve"
   sodipodi:docname="next.svg"
   inkscape:version="0.92.4 (5da689c313, 2019-01-14)"
   width="487.95764"
   height="418.0686"><metadata
   id="metadata41"><rdf:RDF><cc:Work
       rdf:about=""><dc:format>image/svg+xml</dc:format><dc:type
         rdf:resource="http://purl.org/dc/dcmitype/StillImage" /></cc:Work></rdf:RDF></metadata><defs
   id="defs39" /><sodipodi:namedview
   pagecolor="#ffffff"
   bordercolor="#666666"
   borderopacity="1"
   objecttolerance="10"
   gridtolerance="10"
   guidetolerance="10"
   inkscape:pageopacity="0"
   inkscape:pageshadow="2"
   inkscape:window-width="944"
   inkscape:window-height="828"
   id="namedview37"
   showgrid="false"
   inkscape:zoom="0.48364818"
   inkscape:cx="295.7145"
   inkscape:cy="-24.415255"
   inkscape:window-x="0"
   inkscape:window-y="0"
   inkscape:window-maximized="0"
   inkscape:current-layer="Capa_1" />
<g
   id="g4"
   transform="translate(-3.5386463e-4,-34.944402)">
	<path
   d="m 483.058,215.613 -215.5,-177.6 c -4,-3.3 -9.6,-4 -14.3,-1.8 -4.7,2.2 -7.7,7 -7.7,12.2 v 93.6 c -104.6,3.8 -176.5,40.7 -213.9,109.8 -32.2,59.6 -31.9,130.2 -31.6,176.9 0,3.8 0,7.4 0,10.8 0,6.1 4.1,11.5 10.1,13.1 1.1,0.3 2.3,0.4 3.4,0.4 4.8,0 9.3,-2.5 11.7,-6.8 73,-128.7 133.1,-134.9 220.2,-135.2 v 93.3 c 0,5.2 3,10 7.8,12.2 4.8,2.2 10.3,1.5 14.4,-1.8 l 215.4,-178.2 c 3.1,-2.6 4.9,-6.4 4.9,-10.4 0,-4 -1.8,-7.9 -4.9,-10.5 z m -210.5,160 v -78.1 c 0,-3.6 -1.4,-7 -4,-9.5 -2.5,-2.5 -6,-4 -9.5,-4 -54.4,0 -96.1,1.5 -136.6,20.4 -35,16.3 -65.3,44 -95.2,87.5 1.2,-39.7 6.4,-87.1 28.1,-127.2 34.4,-63.6 101,-95.1 203.7,-96 7.4,-0.1 13.4,-6.1 13.4,-13.5 v -78.2 l 180.7,149.1 z"
   id="path2"
   inkscape:connector-curvature="0" />
</g>
<g
   id="g6"
   transform="translate(-3.5386463e-4,-34.944402)">
</g>
<g
   id="g8"
   transform="translate(-3.5386463e-4,-34.944402)">
</g>
<g
   id="g10"
   transform="translate(-3.5386463e-4,-34.944402)">
</g>
<g
   id="g12"
   transform="translate(-3.5386463e-4,-34.944402)">
</g>
<g
   id="g14"
   transform="translate(-3.5386463e-4,-34.944402)">
</g>
<g
   id="g16"
   transform="translate(-3.5386463e-4,-34.944402)">
</g>
<g
   id="g18"
   transform="translate(-3.5386463e-4,-34.944402)">
</g>
<g
   id="g20"
   transform="translate(-3.5386463e-4,-34.944402)">
</g>
<g
   id="g22"
   transform="translate(-3.5386463e-4,-34.944402)">
</g>
<g
   id="g24"
   transform="translate(-3.5386463e-4,-34.944402)">
</g>
<g
   id="g26"
   transform="translate(-3.5386463e-4,-34.944402)">
</g>
<g
   id="g28"
   transform="translate(-3.5386463e-4,-34.944402)">
</g>
<g
   id="g30"
   transform="translate(-3.5386463e-4,-34.944402)">
</g>
<g
   id="g32"
   transform="translate(-3.5386463e-4,-34.944402)">
</g>
<g
   id="g34"
   transform="translate(-3.5386463e-4,-34.944402)">
</g>
<path
   style="fill:#f9f9f9;stroke-width:2.06761861"
   d="M 4.9722434,412.65444 C 1.3604528,408.63567 1.0766618,405.15969 1.5538893,370.78516 2.1882273,325.09403 4.792442,301.13877 12.407122,270.95009 35.22368,180.49296 98.10526,127.70003 201.61409,112.09927 c 11.36,-1.71217 26.00453,-3.11852 32.54338,-3.12522 l 11.8888,-0.0122 V 59.33901 c 0,-46.866024 0.22974,-49.8525841 4.13524,-53.7580861 2.27438,-2.27438 6.30024,-4.135237 8.94634,-4.135237 5.37825,0 224.66856,179.3097931 226.97302,185.5918231 0.72541,1.97741 0.5883,5.55675 -0.30464,7.9541 -2.33459,6.26781 -219.94604,185.71406 -226.17058,186.50427 -3.03041,0.3847 -6.76651,-1.06596 -9.31888,-3.61834 -4.06651,-4.06651 -4.2605,-6.52904 -4.2605,-54.08731 v -49.82682 l -24.29452,1.37571 c -13.36198,0.75663 -33.13359,2.80235 -43.93689,4.54606 -55.74074,8.99678 -94.678105,38.48483 -136.05364,103.03615 -8.017967,12.5091 -16.578239,25.30249 -19.022824,28.42976 -5.335446,6.82546 -12.341347,7.33941 -17.7661526,1.30335 z M 51.283013,327.83205 C 82.42071,290.34261 121.96389,265.43784 163.88874,256.9116 c 18.61866,-3.78648 57.27759,-7.27182 81.18056,-7.31894 26.76832,-0.0528 25.7884,-1.90231 25.7884,48.67354 0,23.24794 0.8097,42.26895 1.79934,42.26895 3.13768,0 179.11729,-146.78521 179.11729,-149.40236 0,-1.37638 -40.47363,-35.90605 -89.94141,-76.7326 l -89.94141,-74.230094 -1.13779,44.217072 c -0.62579,24.319392 -1.32361,44.336792 -1.55072,44.483132 -4.53145,2.9198 -16.52501,4.78054 -36.59625,5.67769 -54.4782,2.4351 -99.9159,16.97093 -134.114664,42.9042 -42.283403,32.06392 -67.206264,88.06676 -70.724437,158.92111 l -1.079301,21.73661 4.747312,-6.04878 c 2.611022,-3.32684 11.542331,-14.22993 19.847353,-24.22908 z"
   id="path43"
   inkscape:connector-curvature="0" /><path
   style="fill:#f9f9f9;stroke-width:2.06761861"
   d="M 29.658044,333.29849 C 33.501396,275.70753 51.168223,228.6667 80.884308,196.90011 116.4322,158.89931 163.15956,140.5847 236.36967,135.95824 c 22.38169,-1.41439 29.43011,-2.5802 32.52309,-5.3793 3.59558,-3.25397 3.99871,-7.25662 4.50755,-44.756362 l 0.55881,-41.182792 88.41035,72.929874 88.41034,72.92987 -4.67179,4.57496 c -2.56947,2.51623 -42.35413,35.73991 -88.41034,73.83039 l -83.73856,69.25543 -1.0338,-41.49622 -1.03381,-41.49624 -5.69911,-4.25129 c -5.57529,-4.15893 -6.58592,-4.19786 -46.52141,-1.79196 -43.98048,2.64959 -64.16311,6.03589 -85.27613,14.30787 -32.48829,12.72878 -65.96451,38.52741 -90.475246,69.72525 -6.314895,8.03775 -12.38653,15.54453 -13.492523,16.68172 -1.304508,1.3413 -1.574659,-4.4692 -0.769047,-16.54095 z"
   id="path24"
   inkscape:connector-curvature="0" /></svg>